<?xml version="1.0" encoding="UTF-8" standalone="no"?>
<svg
   xmlns:dc="http://purl.org/dc/elements/1.1/"
   xmlns:cc="http://creativecommons.org/ns#"
   xmlns:rdf="http://www.w3.org/1999/02/22-rdf-syntax-ns#"
   xmlns:svg="http://www.w3.org/2000/svg"
   xmlns="http://www.w3.org/2000/svg"
   xmlns:sodipodi="http://sodipodi.sourceforge.net/DTD/sodipodi-0.dtd"
   xmlns:inkscape="http://www.inkscape.org/namespaces/inkscape"
   width="697.30029"
   height="53.470001"
   viewBox="-237.28 4.2200073 697.3003 53.470002"
   preserveAspectRatio="xMidYMid"
   version="1.1"
   id="svg47"
   sodipodi:docname="SINE WAVES &amp; SUMS.svg"
   inkscape:version="0.92.4 (5da689c313, 2019-01-14)">
  <metadata
     id="metadata51">
    <rdf:RDF>
      <cc:Work
         rdf:about="">
        <dc:format>image/svg+xml</dc:format>
        <dc:type
           rdf:resource="http://purl.org/dc/dcmitype/StillImage" />
      </cc:Work>
    </rdf:RDF>
  </metadata>
  <sodipodi:namedview
     pagecolor="#ffffff"
     bordercolor="#666666"
     borderopacity="1"
     objecttolerance="10"
     gridtolerance="10"
     guidetolerance="10"
     inkscape:pageopacity="0"
     inkscape:pageshadow="2"
     inkscape:window-width="1920"
     inkscape:window-height="1057"
     id="namedview49"
     showgrid="false"
     inkscape:zoom="2.3313085"
     inkscape:cx="365.35039"
     inkscape:cy="-4.9514251"
     inkscape:window-x="-8"
     inkscape:window-y="-8"
     inkscape:window-maximized="1"
     inkscape:current-layer="g43" />
  <defs
     id="defs37">
    <filter
       id="editing-extrude-glow">
      <feFlood
         flood-color="none"
         result="flood-1"
         id="feFlood2" />
      <feMorphology
         operator="erode"
         radius="1"
         in="SourceAlpha"
         result="erode"
         id="feMorphology4" />
      <feComposite
         operator="in"
         in="flood-1"
         in2="erode"
         result="comp1"
         id="feComposite6" />
      <feConvolveMatrix
         order="0,0"
         divisor="1"
         in="comp1"
         result="convolve"
         kernelMatrix=""
         id="feConvolveMatrix8" />
      <feOffset
         dx="0"
         dy="0"
         in="convolve"
         result="extrude"
         id="feOffset10" />
      <feComposite
         operator="in"
         in="flood-1"
         in2="extrude"
         result="comp-extrude"
         id="feComposite12" />
      <feFlood
         flood-color="none"
         result="flood-2"
         id="feFlood14" />
      <feComposite
         operator="in"
         in="flood-2"
         in2="SourceAlpha"
         result="comp2"
         id="feComposite16" />
      <feMorphology
         operator="dilate"
         radius="1"
         in="comp2"
         result="dilate"
         id="feMorphology18" />
      <feOffset
         dx="0"
         dy="0"
         in="dilate"
         result="offset"
         id="feOffset20" />
      <feGaussianBlur
         in="offset"
         stdDeviation="5.8"
         result="blur"
         id="feGaussianBlur22" />
      <feComponentTransfer
         in="blur"
         result="shadow"
         id="feComponentTransfer26">
        <feFuncA
           type="linear"
           slope="0.8"
           intercept="-0.2"
           id="feFuncA24" />
      </feComponentTransfer>
      <feMerge
         id="feMerge34">
        <feMergeNode
           in="shadow"
           id="feMergeNode28" />
        <feMergeNode
           in="comp-extrude"
           id="feMergeNode30" />
        <feMergeNode
           in="SourceGraphic"
           id="feMergeNode32" />
      </feMerge>
    </filter>
  </defs>
  <g
     id="g43"
     style="filter:url(#editing-extrude-glow)"
     transform="translate(-138.62883,-45.174373)">
    <g
       transform="translate(-99.880852,101.73438)"
       id="g41">
      <path
         d="m 12.47,0.13 -1.78,-0.51 v 0 Q 9.75,-0.59 8.63,-0.95 v 0 0 Q 7.5,-1.31 7.19,-1.31 v 0 H 6.81 v 0 q -1.09,0 -1.68,1.25 v 0 0 Q 5.09,0 5.06,0 V 0 H 4.16 V 0 Q 3.97,0 3.94,-0.16 v 0 L 1.25,-9.38 v 0 q -0.16,-0.65 0.94,-0.65 v 0 0 q 0.44,0 0.59,0.17 v 0 0 Q 2.94,-9.69 3,-9.63 v 0 0 q 0.06,0.07 0.28,0.44 v 0 0 q 4.13,5.1 12.1,5.1 v 0 0 q 4.18,0 6.95,-2.21 v 0 0 q 2.76,-2.2 2.76,-6.48 v 0 0 q 0,-2.88 -0.92,-4.3 v 0 0 q -0.92,-1.42 -1.51,-2.14 v 0 0 q -1.25,-1.53 -5.99,-4.22 v 0 0 Q 11.94,-26.13 9,-28.25 v 0 0 Q 1.5,-33.66 1.5,-39.38 v 0 0 q 0,-5.71 3.58,-8.84 v 0 0 q 3.58,-3.12 9.48,-3.12 v 0 0 q 3.32,0 7,1.78 v 0 0 q 1.75,0.84 2.57,1.12 v 0 0 q 0.81,0.28 1.12,-0.33 v 0 0 q 0.31,-0.61 0.38,-0.61 v 0 0 q 1.4,-0.15 1.4,0.44 v 0 l 0.94,10.03 v 0 q 0,0.28 -1.44,0.28 v 0 0 q -0.22,0 -0.37,-0.56 v 0 0 q -0.97,-3.19 -4.53,-5.29 v 0 0 q -3.57,-2.11 -7.13,-2.11 v 0 0 q -7.56,0 -7.56,6.25 v 0 0 q 0,4.53 8.19,9.03 v 0 l 5.93,3.18 v 0 q 5.47,3.04 7.67,6.55 v 0 0 q 2.21,3.52 2.21,7.52 v 0 0.31 0 q -0.78,5.37 -1.88,7.31 v 0 0 q -1.81,3.19 -5.15,5.11 v 0 0 q -3.35,1.92 -7.6,1.92 v 0 0 Q 13.97,0.5 12.47,0.13 Z m 23.81,-51.32 v 0 h 10.13 v 0 q 0.4,0 0.4,0.55 v 0 0 q 0,0.55 -0.14,0.66 v 0 0 q -0.14,0.1 -0.39,0.21 v 0 0 q -0.25,0.11 -0.64,0.5 v 0 0 q -0.39,0.39 -0.83,1.44 v 0 0 q -0.43,1.05 -0.43,2.11 v 0 40.25 0 q 0,2.28 1.5,3.78 v 0 0 q 0.12,0.13 0.53,0.31 v 0 0 q 0.4,0.19 0.4,0.79 v 0 0 Q 46.81,0 46.41,0 V 0 H 36.28 v 0 q -0.4,0 -0.4,-0.55 v 0 0 q 0,-0.54 0.14,-0.65 v 0 0 q 0.14,-0.11 0.39,-0.22 v 0 0 q 0.25,-0.11 0.64,-0.5 v 0 0 q 0.39,-0.39 0.83,-1.44 v 0 0 q 0.43,-1.05 0.43,-2.11 v 0 -40.25 0 q 0,-2.28 -1.5,-3.78 v 0 0 q -0.12,-0.13 -0.53,-0.31 v 0 0 q -0.4,-0.19 -0.4,-0.78 v 0 0 q 0,-0.6 0.4,-0.6 z m 18.63,0 h 7.9 v 0 q 0.28,0 0.53,0.25 v 0 l 34.94,37.06 h 0.22 v -31.84 0 q 0,-2.25 -1.53,-3.78 v 0 0 q -0.13,-0.13 -0.53,-0.31 v 0 0 Q 96.03,-50 96.03,-50.59 v 0 0 q 0,-0.6 0.41,-0.6 v 0 h 10.22 v 0 q 0.4,0 0.4,0.55 v 0 0 q 0,0.55 -0.14,0.66 v 0 0 q -0.14,0.1 -0.39,0.21 v 0 0 q -0.25,0.11 -0.65,0.52 v 0 0 q -0.41,0.41 -0.86,1.44 v 0 0 q -0.46,1.03 -0.46,2.09 v 0 44.06 0 q 0,1.16 -0.29,1.41 v 0 0 Q 103.97,0 103.31,0 v 0 0 q -0.65,0 -1.06,-0.38 v 0 L 62.97,-42.06 v 36.59 0 q 0,2.41 1.37,3.78 v 0 0 q 0.13,0.13 0.54,0.31 v 0 0 q 0.4,0.19 0.4,0.79 v 0 0 Q 65.28,0 64.88,0 V 0 H 54.81 v 0 q -0.4,0 -0.4,-0.55 v 0 0 q 0,-0.54 0.14,-0.65 v 0 0 q 0.14,-0.11 0.39,-0.22 v 0 0 q 0.25,-0.11 0.4,-0.27 v 0 0 q 1.57,-1.56 1.57,-3.78 v 0 -40.25 0 q 0,-2.31 -1.47,-3.78 v 0 0 q -0.13,-0.13 -0.53,-0.31 v 0 0 Q 54.5,-50 54.5,-50.59 v 0 0 q 0,-0.6 0.41,-0.6 z m 67.93,20.56 h 19.72 v 0 q 2.28,0 3.78,-1.5 v 0 0 q 0.13,-0.12 0.32,-0.53 v 0 0 q 0.18,-0.4 0.78,-0.4 v 0 0 q 0.59,0 0.59,0.4 v 0 9.07 0 q 0,0.4 -0.55,0.4 v 0 0 q -0.54,0 -0.65,-0.14 v 0 0 q -0.11,-0.14 -0.22,-0.39 v 0 0 q -0.11,-0.25 -0.5,-0.64 v 0 0 q -0.39,-0.39 -1.44,-0.8 v 0 0 q -1.04,-0.4 -2.11,-0.4 v 0 h -19.72 v 20.5 h 20.75 v 0 q 3.54,0 4.33,-0.61 v 0 0 q 0.8,-0.61 1.13,-1.08 v 0 0 q 0.33,-0.47 0.5,-0.47 v 0 0 q 0.17,0 0.62,0.16 v 0 0 q 0.46,0.15 0.46,0.28 v 0 0 q 0,0.12 -0.44,1.22 v 0 l -1,2.53 v 0 q -0.56,1.44 -0.77,2.17 v 0 0 q -0.2,0.73 -0.54,0.86 v 0 h -33.13 v 0 q -0.41,0 -0.41,-0.55 v 0 0 q 0,-0.54 0.14,-0.65 v 0 0 q 0.15,-0.11 0.4,-0.22 v 0 0 q 0.25,-0.11 0.64,-0.5 v 0 0 q 0.39,-0.39 0.82,-1.44 v 0 0 q 0.44,-1.05 0.44,-2.11 v 0 -40.25 0 q 0,-2.28 -1.5,-3.78 v 0 0 q -0.12,-0.13 -0.53,-0.31 v 0 0 q -0.41,-0.19 -0.41,-0.78 v 0 0 q 0,-0.6 0.41,-0.6 v 0 h 33.13 v 0 q 0.31,0 0.53,0.8 v 0 0 q 0.22,0.8 0.78,2.23 v 0 l 1,2.53 v 0 q 0.44,1.1 0.44,1.22 v 0 0 q 0,0.13 -0.46,0.28 v 0 0 q -0.45,0.16 -0.59,0.16 v 0 0 q -0.14,0 -0.3,-0.17 v 0 0 q -0.15,-0.17 -0.36,-0.47 v 0 0 q -0.2,-0.3 -1,-0.91 v 0 0 q -0.79,-0.61 -4.33,-0.61 v 0 h -20.75 z m 103.82,15.5 -12.38,-27.53 h -0.25 v 0 q -2.56,6.03 -8.11,20.32 v 0 0 q -5.54,14.28 -8.98,21.96 v 0 0 Q 196.78,0 195.41,0 v 0 0 q -1.38,0 -1.57,-0.38 v 0 0 q 0,0 -4.71,-9.68 v 0 l -8.19,-17.69 v 0 q 0,0 -8.28,-18.66 v 0 0 q -1.22,-2.84 -2.41,-3.4 v 0 0 q -0.41,-0.19 -0.41,-0.78 v 0 0 q 0,-0.6 0.41,-0.6 v 0 h 11.31 v 0 q 0.41,0 0.41,0.55 v 0 0 q 0,0.55 -0.14,0.66 v 0 0 q -0.14,0.1 -0.39,0.21 v 0 0 q -0.25,0.11 -0.41,0.27 v 0 0 q -1.72,1.72 -0.97,3.87 v 0 l 15.85,35.32 h 0.22 l 13.59,-35.32 v 0 q 0.06,-0.21 0.25,-0.71 v 0 0 q 0.19,-0.5 0.25,-0.71 v 0 0 q 0.06,-0.2 0.19,-0.58 v 0 0 q 0.12,-0.37 0.12,-0.56 v 0 -0.5 0 q 0,-0.72 -0.65,-1.01 v 0 0 q -0.66,-0.3 -0.66,-0.61 v 0 0 q 0,-0.88 0.41,-0.88 v 0 h 10.34 v 0 q 0.41,0 0.41,0.55 v 0 0 q 0,0.55 -0.15,0.66 v 0 0 q -0.14,0.1 -0.39,0.21 v 0 0 q -0.25,0.11 -0.45,0.32 v 0 0 q -0.2,0.2 -0.28,0.48 v 0 0 q -0.08,0.28 0.02,0.72 v 0 0 q 0.09,0.62 0.5,1.62 v 0 l 0.37,1 15.84,35.32 h 0.22 l 13.66,-35.32 v 0 q 0.75,-2.15 -0.97,-3.87 v 0 0 q -0.12,-0.13 -0.53,-0.31 v 0 0 q -0.41,-0.19 -0.41,-0.78 v 0 0 q 0,-0.6 0.41,-0.6 v 0 h 9.84 v 0 q 0.41,0 0.41,0.55 v 0 0 q 0,0.55 -0.14,0.66 v 0 0 q -0.14,0.1 -0.39,0.23 v 0 0 q -1.03,0.47 -2.28,3.34 v 0 0 q -3.38,7.6 -9.35,22.93 v 0 0 q -5.97,15.32 -9.43,23.1 v 0 0 Q 236.72,0 235.34,0 v 0 0 q -1.37,0 -1.56,-0.38 v 0 z m 30.4,10.35 v 0 0 q 0,0 20.57,-46.03 v 0 0 q 0.15,-0.38 1.53,-0.38 v 0 0 q 1.37,0 1.56,0.38 v 0 l 21.19,46.03 v 0 q 1.22,2.84 2.4,3.4 v 0 0 q 0.41,0.19 0.41,0.79 v 0 0 Q 304.72,0 304.31,0 V 0 H 293 v 0 q -0.41,0 -0.41,-0.55 v 0 0 q 0,-0.54 0.14,-0.65 v 0 0 q 0.15,-0.11 0.4,-0.22 v 0 0 q 0.25,-0.11 0.4,-0.27 v 0 0 q 1.19,-1.19 1.19,-2.2 v 0 0 q 0,-1.02 -0.22,-1.67 v 0 l -4.53,-10.72 H 267.44 L 263,-5.56 v 0 q -0.22,0.65 -0.22,1 v 0 0.34 0 q 0,0.03 0,0.06 v 0 0 q 0,1.28 1.19,2.47 v 0 0 q 0.12,0.13 0.53,0.31 v 0 0 q 0.41,0.19 0.41,0.79 v 0 0 Q 264.91,0 264.5,0 v 0 h -9.84 v 0 q -0.41,0 -0.41,-0.55 v 0 0 q 0,-0.54 0.14,-0.65 v 0 0 q 0.14,-0.11 0.39,-0.24 v 0 0 q 1.03,-0.44 2.28,-3.34 z m 21.38,-36.1 -8.78,19.63 v 0 q -0.07,0.09 -0.03,0.23 v 0 0 q 0.03,0.14 0.12,0.14 v 0 h 17.84 v 0 q 0.1,0 0.13,-0.14 v 0 0 q 0.03,-0.14 -0.03,-0.23 v 0 l -9.03,-19.63 z m 47.97,30.57 h 0.22 l 15.43,-35.32 v 0 q 0.75,-2.15 -0.97,-3.87 v 0 0 q -0.12,-0.13 -0.53,-0.31 v 0 0 q -0.4,-0.19 -0.4,-0.78 v 0 0 q 0,-0.6 0.4,-0.6 v 0 h 9.85 v 0 q 0.4,0 0.4,0.55 v 0 0 q 0,0.55 -0.14,0.66 v 0 0 q -0.14,0.1 -0.39,0.23 v 0 0 q -1.03,0.47 -2.28,3.34 v 0 l -20.56,46.03 v 0 Q 327.28,0 325.91,0 v 0 0 q -1.38,0 -1.57,-0.38 v 0 l -4.71,-9.68 -8.19,-17.69 -8.28,-18.66 v 0 q -1.22,-2.84 -2.41,-3.4 v 0 0 q -0.41,-0.19 -0.41,-0.78 v 0 0 q 0,-0.6 0.41,-0.6 v 0 h 11.31 v 0 q 0.41,0 0.41,0.55 v 0 0 q 0,0.55 -0.14,0.66 v 0 0 q -0.14,0.1 -0.39,0.21 v 0 0 q -0.25,0.11 -0.41,0.27 v 0 0 q -1.72,1.72 -0.97,3.87 v 0 z m 36.97,-20.32 h 19.71 v 0 q 2.29,0 3.79,-1.5 v 0 0 q 0.12,-0.12 0.31,-0.53 v 0 0 q 0.19,-0.4 0.78,-0.4 v 0 0 q 0.59,0 0.59,0.4 v 0 9.07 0 q 0,0.4 -0.54,0.4 v 0 0 q -0.55,0 -0.66,-0.14 v 0 0 q -0.11,-0.14 -0.22,-0.39 v 0 0 q -0.11,-0.25 -0.5,-0.64 v 0 0 q -0.39,-0.39 -1.44,-0.8 v 0 0 q -1.04,-0.4 -2.11,-0.4 v 0 h -19.71 v 20.5 h 20.75 v 0 q 3.53,0 4.32,-0.61 v 0 0 q 0.8,-0.61 1.13,-1.08 v 0 0 q 0.33,-0.47 0.5,-0.47 v 0 0 q 0.17,0 0.62,0.16 v 0 0 q 0.46,0.15 0.46,0.28 v 0 0 q 0,0.12 -0.44,1.22 v 0 l -1,2.53 v 0 q -0.56,1.44 -0.77,2.17 v 0 0 q -0.2,0.73 -0.54,0.86 v 0 h -33.13 v 0 q -0.4,0 -0.4,-0.55 v 0 0 q 0,-0.54 0.14,-0.65 v 0 0 q 0.14,-0.11 0.39,-0.22 v 0 0 q 0.25,-0.11 0.64,-0.5 v 0 0 q 0.39,-0.39 0.83,-1.44 v 0 0 q 0.43,-1.05 0.43,-2.11 v 0 -40.25 0 q 0,-2.28 -1.5,-3.78 v 0 0 q -0.12,-0.13 -0.53,-0.31 v 0 0 q -0.4,-0.19 -0.4,-0.78 v 0 0 q 0,-0.6 0.4,-0.6 v 0 h 33.13 v 0 q 0.31,0 0.53,0.8 v 0 0 q 0.22,0.8 0.78,2.23 v 0 l 1,2.53 v 0 q 0.44,1.1 0.44,1.22 v 0 0 q 0,0.13 -0.46,0.28 v 0 0 q -0.45,0.16 -0.59,0.16 v 0 0 q -0.14,0 -0.3,-0.17 v 0 0 q -0.15,-0.17 -0.36,-0.47 v 0 0 q -0.2,-0.3 -1,-0.91 v 0 0 q -0.79,-0.61 -4.32,-0.61 v 0 h -20.75 z m 42.68,30.76 -1.78,-0.51 v 0 q -0.94,-0.21 -2.06,-0.57 v 0 0 q -1.13,-0.36 -1.44,-0.36 v 0 h -0.37 v 0 q -1.1,0 -1.69,1.25 v 0 0 Q 398.69,0 398.66,0 v 0 h -0.91 v 0 q -0.19,0 -0.22,-0.16 v 0 l -2.69,-9.22 v 0 q -0.15,-0.65 0.94,-0.65 v 0 0 q 0.44,0 0.6,0.17 v 0 0 q 0.15,0.17 0.21,0.23 v 0 0 q 0.07,0.07 0.29,0.44 v 0 0 q 4.12,5.1 12.09,5.1 v 0 0 q 4.19,0 6.95,-2.21 v 0 0 q 2.77,-2.2 2.77,-6.48 v 0 0 q 0,-2.88 -0.92,-4.3 v 0 0 q -0.93,-1.42 -1.52,-2.14 v 0 0 q -1.25,-1.53 -5.98,-4.22 v 0 0 q -4.74,-2.69 -7.68,-4.81 v 0 0 q -7.5,-5.41 -7.5,-11.13 v 0 0 q 0,-5.71 3.58,-8.84 v 0 0 q 3.58,-3.12 9.49,-3.12 v 0 0 q 3.31,0 7,1.78 v 0 0 q 1.75,0.84 2.56,1.12 v 0 0 q 0.81,0.28 1.12,-0.33 v 0 0 q 0.32,-0.61 0.38,-0.61 v 0 0 q 1.41,-0.15 1.41,0.44 v 0 l 0.93,10.03 v 0 q 0,0.28 -1.43,0.28 v 0 0 q -0.22,0 -0.38,-0.56 v 0 0 q -0.97,-3.19 -4.53,-5.29 v 0 0 q -3.56,-2.11 -7.13,-2.11 v 0 0 q -7.56,0 -7.56,6.25 v 0 0 q 0,4.53 8.19,9.03 v 0 l 5.94,3.18 v 0 q 5.47,3.04 7.67,6.55 v 0 0 q 2.2,3.52 2.2,7.52 v 0 0.31 0 q -0.78,5.37 -1.87,7.31 v 0 0 q -1.82,3.19 -5.16,5.11 v 0 0 q -3.34,1.92 -7.59,1.92 v 0 0 Q 407.56,0.5 406.06,0.13 Z m 59.78,-35.41 v 2.5 0 q 0,0.87 -0.4,0.87 v 0 h -3.75 v 0 q -3.66,0 -6.94,2.38 v 0 0 q -5.72,4.15 -5.75,11.03 v 0 0 q 0,2.81 1.41,5.45 v 0 0 q 1.4,2.64 3.62,4.53 v 0 0 q 2.22,1.89 5.08,3.04 v 0 0 q 2.86,1.14 5.2,1.14 v 0 0 q 2.35,0 3.97,-0.5 v 0 0 q 1.63,-0.5 2.77,-1.32 v 0 0 q 1.14,-0.81 2.08,-1.9 v 0 0 q 1.59,-1.88 2.35,-4.21 v 0 0 q 0.77,-2.32 0.75,-3.65 v 0 0 q -0.01,-1.33 -1.2,-1.46 v 0 h -10.56 v 0 q -3.53,0 -4.33,0.61 v 0 0 q -0.8,0.61 -1.12,1.08 v 0 0 q -0.33,0.47 -0.5,0.47 v 0 0 q -0.18,0 -0.63,-0.16 v 0 0 q -0.45,-0.15 -0.45,-0.28 v 0 0 q 0,-0.12 0.44,-1.09 v 0 l 1,-2.31 v 0 q 0.56,-1.32 0.78,-2.08 v 0 0 q 0.22,-0.77 0.53,-0.86 v 0 h 29 v 0 q 2.25,0 3.75,-1.5 v 0 0 q 0.12,-0.13 0.33,-0.53 v 0 0 q 0.2,-0.41 0.78,-0.41 v 0 0 q 0.58,0 0.58,0.44 v 0 0 q -0.54,3.66 -1.35,5.84 v 0 0 q -0.28,0.72 -1.12,0.78 v 0 0 q -1.88,0.13 -5.1,-0.04 v 0 0 q -3.22,-0.17 -4.87,0.01 v 0 0 q -1.66,0.19 -1.66,1.16 v 0 0 q 0,4.34 -2.47,9 v 0 0 q -4.43,8.38 -15,8.38 v 0 0 q -3.34,0 -6.87,-1.38 v 0 0 q -3.53,-1.38 -6.14,-3.81 v 0 0 q -2.61,-2.44 -4.14,-6.02 v 0 0 q -1.53,-3.58 -1.53,-6.94 v 0 0 q 0,-3.36 0.62,-5.61 v 0 0 q 1.13,-4.06 3.53,-6.62 v 0 0 q 2.41,-2.56 5.53,-4.69 v 0 -0.19 0 q -2.87,-2.25 -3.68,-3.89 v 0 0 q -0.82,-1.64 -0.82,-3.86 v 0 0 q 0,-4.65 2.92,-7.56 v 0 0 q 2.93,-2.9 7.36,-2.9 v 0 0 q 1.57,0 3.91,0.84 v 0 0 q 0.47,0.19 1.03,-0.19 v 0 0 q 0.56,-0.37 1.2,-0.37 v 0 0 q 0.65,0 0.96,0.59 v 0 0 q 0.12,0.09 0.09,0.66 v 0 0 q -0.03,0.72 0.75,4.15 v 0 l 0.78,3.41 v 0 q 0.32,1.37 0.32,1.75 v 0 0 q 0,0.19 -0.8,0.58 v 0 0 q -0.8,0.39 -0.92,0.17 v 0 l -2.07,-4.53 v 0 q -1.56,-2.75 -4.61,-2.75 v 0 0 q -3.04,0 -4.67,1.61 v 0 0 q -1.62,1.61 -1.62,4.45 v 0 0 q 0,1.59 1.12,2.97 v 0 0 q 2.35,2.84 6.38,2.84 v 0 h 3.75 v 0 q 0.4,0 0.4,0.88 z m 59.1,35.41 -1.78,-0.51 v 0 q -0.94,-0.21 -2.07,-0.57 v 0 0 q -1.12,-0.36 -1.43,-0.36 v 0 h -0.38 v 0 q -1.09,0 -1.69,1.25 v 0 0 Q 517.56,0 517.53,0 v 0 h -0.9 v 0 q -0.19,0 -0.22,-0.16 v 0 l -2.69,-9.22 v 0 q -0.16,-0.65 0.94,-0.65 v 0 0 q 0.43,0 0.59,0.17 v 0 0 q 0.16,0.17 0.22,0.23 v 0 0 q 0.06,0.07 0.28,0.44 v 0 0 q 4.13,5.1 12.09,5.1 v 0 0 q 4.19,0 6.96,-2.21 v 0 0 q 2.76,-2.2 2.76,-6.48 v 0 0 q 0,-2.88 -0.92,-4.3 v 0 0 q -0.92,-1.42 -1.51,-2.14 v 0 0 q -1.25,-1.53 -5.99,-4.22 v 0 0 q -4.73,-2.69 -7.67,-4.81 v 0 0 q -7.5,-5.41 -7.5,-11.13 v 0 0 q 0,-5.71 3.58,-8.84 v 0 0 q 3.58,-3.12 9.48,-3.12 v 0 0 q 3.31,0 7,1.78 v 0 0 q 1.75,0.84 2.56,1.12 v 0 0 q 0.82,0.28 1.13,-0.33 v 0 0 q 0.31,-0.61 0.37,-0.61 v 0 0 q 1.41,-0.15 1.41,0.44 v 0 l 0.94,10.03 v 0 q 0,0.28 -1.44,0.28 v 0 0 q -0.22,0 -0.37,-0.56 v 0 0 q -0.97,-3.19 -4.54,-5.29 v 0 0 q -3.56,-2.11 -7.12,-2.11 v 0 0 q -7.56,0 -7.56,6.25 v 0 0 q 0,4.53 8.18,9.03 v 0 l 5.94,3.18 v 0 q 5.47,3.04 7.67,6.55 v 0 0 q 2.21,3.52 2.21,7.52 v 0 0.31 0 q -0.78,5.37 -1.88,7.31 v 0 0 q -1.81,3.19 -5.15,5.11 v 0 0 q -3.35,1.92 -7.6,1.92 v 0 0 Q 526.44,0.5 524.94,0.13 Z m 25.9,-19.94 v -25.91 0 q 0,-2.22 -1.56,-3.78 v 0 0 q -0.12,-0.13 -0.53,-0.31 v 0 0 q -0.41,-0.19 -0.41,-0.78 v 0 0 q 0,-0.6 0.41,-0.6 v 0 h 10.5 v 0 q 0.41,0 0.41,0.55 v 0 0 q 0,0.55 -0.14,0.66 v 0 0 q -0.14,0.1 -0.39,0.21 v 0 0 q -0.25,0.11 -0.65,0.5 v 0 0 q -0.39,0.39 -0.82,1.44 v 0 0 q -0.44,1.05 -0.44,2.11 v 0 25.91 0 q 0,7.22 4.45,11.2 v 0 0 q 4.46,3.98 10.89,3.98 v 0 0 q 3.78,0 7.11,-1.92 v 0 0 q 3.33,-1.92 5.28,-5.09 v 0 0 q 1.96,-3.17 1.96,-6.74 v 0 -27.34 0 q 0,-2.28 -1.5,-3.78 v 0 0 q -0.13,-0.13 -0.53,-0.31 v 0 0 q -0.41,-0.19 -0.41,-0.78 v 0 0 q 0,-0.6 0.41,-0.6 v 0 h 9.75 v 0 q 0.4,0 0.4,0.55 v 0 0 q 0,0.55 -0.14,0.66 v 0 0 q -0.14,0.1 -0.39,0.21 v 0 0 q -0.25,0.11 -0.64,0.5 v 0 0 q -0.39,0.39 -0.83,1.44 v 0 0 q -0.44,1.05 -0.44,2.11 v 0 27.34 0 q 0,5.38 -2.76,9.88 v 0 0 q -2.77,4.5 -7.41,7.06 v 0 0 q -4.64,2.57 -10.28,2.57 v 0 0 q -5.64,0 -10.53,-2.63 v 0 0 q -4.89,-2.63 -7.83,-7.45 v 0 0 q -2.94,-4.83 -2.94,-10.86 z m 54.63,14.34 5.66,-42.78 v 0 q -1.97,-0.66 -3.1,-0.66 v 0 0 q -1.69,0 -2.69,0.18 v 0 0 q -1,0.17 -1.09,0.01 v 0 0 q -0.09,-0.16 -0.09,-0.47 v 0 0 q 0,-0.31 0.22,-0.65 v 0 0 q 0.21,-0.35 0.53,-0.41 v 0 0 q 4.65,-1.06 12.75,-1.06 v 0 l 15.68,25.62 h 0.32 l 15,-25.62 v 0 q 8.09,0 12.75,1.06 v 0 0 q 0.75,0.16 0.75,1.16 v 0 0 q 0,0.56 -1,0.39 v 0 0 q -1,-0.18 -2.66,-0.18 v 0 0 q -1.66,0 -3.53,0.72 v 0 l 5.97,42.69 v 0 q 0.44,3.34 2.03,4.09 v 0 0 q 0.41,0.19 0.41,0.79 v 0 0 q 0,0.59 -0.41,0.59 v 0 h -10.41 v 0 q -0.4,0 -0.4,-0.55 v 0 0 q 0,-0.54 0.14,-0.65 v 0 0 q 0.14,-0.11 0.39,-0.24 v 0 0 q 0.81,-0.34 1.42,-1.83 v 0 0 q 0.61,-1.48 0.61,-2.03 v 0 0 q 0,-0.54 -0.03,-0.73 v 0 l -5.03,-37.13 h -0.16 l -15.44,27 v 0 q -0.09,0.16 -1.14,0.13 v 0 0 q -1.04,-0.03 -1.11,-0.13 v 0 l -16.09,-27 h -0.28 l -4.6,37.13 v 0 q -0.15,1 0.41,2.36 v 0 0 q 0.56,1.36 0.94,1.73 v 0 0 q 0.37,0.38 0.78,0.56 v 0 0 q 0.41,0.19 0.41,0.79 v 0 0 q 0,0.59 -0.41,0.59 v 0 h -9.53 v 0 q -0.41,0 -0.41,-0.55 v 0 0 q 0,-0.54 0.14,-0.65 v 0 0 q 0.14,-0.11 0.39,-0.24 v 0 0 q 1.47,-0.62 1.91,-4.03 z m 74.59,5.6 -1.78,-0.51 v 0 q -0.94,-0.21 -2.06,-0.57 v 0 0 q -1.13,-0.36 -1.44,-0.36 v 0 h -0.37 v 0 q -1.1,0 -1.69,1.25 v 0 0 Q 672.69,0 672.66,0 v 0 h -0.91 v 0 q -0.19,0 -0.22,-0.16 v 0 l -2.69,-9.22 v 0 q -0.15,-0.65 0.94,-0.65 v 0 0 q 0.44,0 0.6,0.17 v 0 0 q 0.15,0.17 0.21,0.23 v 0 0 q 0.07,0.07 0.29,0.44 v 0 0 q 4.12,5.1 12.09,5.1 v 0 0 q 4.19,0 6.95,-2.21 v 0 0 q 2.77,-2.2 2.77,-6.48 v 0 0 q 0,-2.88 -0.92,-4.3 v 0 0 q -0.93,-1.42 -1.52,-2.14 v 0 0 q -1.25,-1.53 -5.98,-4.22 v 0 0 q -4.74,-2.69 -7.68,-4.81 v 0 0 q -7.5,-5.41 -7.5,-11.13 v 0 0 q 0,-5.71 3.58,-8.84 v 0 0 q 3.58,-3.12 9.49,-3.12 v 0 0 q 3.31,0 7,1.78 v 0 0 q 1.75,0.84 2.56,1.12 v 0 0 q 0.81,0.28 1.12,-0.33 v 0 0 q 0.32,-0.61 0.38,-0.61 v 0 0 q 1.41,-0.15 1.41,0.44 v 0 l 0.93,10.03 v 0 q 0,0.28 -1.43,0.28 v 0 0 q -0.22,0 -0.38,-0.56 v 0 0 q -0.97,-3.19 -4.53,-5.29 v 0 0 q -3.56,-2.11 -7.13,-2.11 v 0 0 q -7.56,0 -7.56,6.25 v 0 0 q 0,4.53 8.19,9.03 v 0 l 5.94,3.18 v 0 q 5.47,3.04 7.67,6.55 v 0 0 q 2.2,3.52 2.2,7.52 v 0 0.31 0 q -0.78,5.37 -1.87,7.31 v 0 0 q -1.82,3.19 -5.16,5.11 v 0 0 q -3.34,1.92 -7.59,1.92 v 0 0 Q 681.56,0.5 680.06,0.13 Z"
         id="path39"
         inkscape:connector-curvature="0"
         style="fill:#ffffff" />
    </g>
  </g>
  <style
     id="style45">text {
  font-size: 64px;
  font-family: Arial Black;
  dominant-baseline: central;
  text-anchor: middle;
}</style>
</svg>
